<svg width="25" height="25" viewBox="0 0 25 25" fill="none" xmlns="http://www.w3.org/2000/svg">
<g clip-path="url(#clip0_5_76)">
<path d="M3.50745 10.5C3.50745 11.4193 3.68851 12.3295 4.04029 13.1788C4.39207 14.0281 4.90769 14.7997 5.5577 15.4497C6.20771 16.0998 6.97938 16.6154 7.82866 16.9672C8.67794 17.3189 9.58819 17.5 10.5074 17.5C11.4267 17.5 12.337 17.3189 13.1862 16.9672C14.0355 16.6154 14.8072 16.0998 15.4572 15.4497C16.1072 14.7997 16.6228 14.0281 16.9746 13.1788C17.3264 12.3295 17.5074 11.4193 17.5074 10.5C17.5074 9.58075 17.3264 8.6705 16.9746 7.82122C16.6228 6.97194 16.1072 6.20026 15.4572 5.55025C14.8072 4.90024 14.0355 4.38463 13.1862 4.03284C12.337 3.68106 11.4267 3.5 10.5074 3.5C9.58819 3.5 8.67794 3.68106 7.82866 4.03284C6.97938 4.38463 6.20771 4.90024 5.5577 5.55025C4.90769 6.20026 4.39207 6.97194 4.04029 7.82122C3.68851 8.6705 3.50745 9.58075 3.50745 10.5Z" stroke="white" stroke-width="1.5" stroke-linecap="round" stroke-linejoin="round"/>
<path d="M21.5074 21.5L15.5074 15.5" stroke="white" stroke-width="1.5" stroke-linecap="round" stroke-linejoin="round"/>
</g>
<defs>
<clipPath id="clip0_5_76">
<rect width="24" height="24" fill="white" transform="translate(0.507446 0.5)"/>
</clipPath>
</defs>
</svg>
