<svg width="24" height="25" viewBox="0 0 24 25" fill="none" xmlns="http://www.w3.org/2000/svg">
<g clip-path="url(#clip0_5_90)">
<path d="M19.5 13.0721L12 20.5001L4.5 13.0721C4.0053 12.5907 3.61564 12.0121 3.35554 11.3727C3.09545 10.7333 2.97056 10.047 2.98873 9.35699C3.00691 8.66697 3.16776 7.98819 3.46115 7.36339C3.75455 6.73859 4.17413 6.18131 4.69348 5.72663C5.21283 5.27196 5.8207 4.92974 6.47881 4.72154C7.13691 4.51333 7.831 4.44364 8.51736 4.51686C9.20373 4.59007 9.8675 4.80461 10.4669 5.14696C11.0662 5.48931 11.5882 5.95205 12 6.50605C12.4135 5.95608 12.9361 5.49738 13.5351 5.15866C14.1341 4.81994 14.7965 4.6085 15.4809 4.53757C16.1654 4.46665 16.8571 4.53775 17.5128 4.74645C18.1685 4.95514 18.774 5.29693 19.2915 5.75042C19.8091 6.20391 20.2274 6.75934 20.5204 7.38195C20.8134 8.00456 20.9747 8.68094 20.9943 9.36876C21.0139 10.0566 20.8913 10.741 20.6341 11.3793C20.377 12.0176 19.9909 12.5959 19.5 13.0781" stroke="#0F0E0E" stroke-width="1.5" stroke-linecap="round" stroke-linejoin="round"/>
</g>
<defs>
<clipPath id="clip0_5_90">
<rect width="24" height="24" fill="white" transform="translate(0 0.5)"/>
</clipPath>
</defs>
</svg>
